<?xml version="1.0" encoding="utf-8"?>
<!-- Generator: Adobe Illustrator 21.0.2, SVG Export Plug-In . SVG Version: 6.00 Build 0)  -->
<svg version="1.1" id="Layer_1" xmlns="http://www.w3.org/2000/svg" xmlns:xlink="http://www.w3.org/1999/xlink" x="0px" y="0px"
	 viewBox="0 0 400 176" style="enable-background:new 0 0 400 176;" xml:space="preserve">
<style type="text/css">
	.st0{fill:#7A9D96;}
	.st1{fill:#FFFFFF;}
	.st2{font-family:'Lato-Thin';}
	.st3{font-size:19.0711px;}
	.st4{font-size:44.3669px;}
	.st5{fill:none;stroke:#CAE4DB;stroke-miterlimit:10;}
	.st6{fill:#CAE4DB;}
</style>
<path class="st0" d="M303.8,74.7c0,0-7.6-3.2,1.1-13c7.6-5.4,13-10.8,32.4-8.6c4.3,1.1,21.6,3.2,27,19.4c2.2,0,9.7-7.6,18.4-2.2
	c3.4,2.2,5.7,5.7,6.5,9.7c0,5.4,0,11.9-7.6,25.9c-3.2,4.3-8.6,14-6.5,18.4c2.1,4.6,6.8,7.6,11.9,7.6c-5.4,1.1-17.3,3.2-20.5-8.6
	c-1.1-3.2-3.2-7.6,2.2-23.7c1.1-2.2,9.7-17.3,2.2-19.4h-3.2c0,0,4.3,13-4.3,27c-2.2,2.2-8.6,9.7-16.2,11.9c0,3.2,0,15.1,5.4,19.4
	l5.4,5.4c0,0-8.6,1.1-15.1,14c-2.2,3.2-5.4,8.6-14,9.7h-5.4c0,0,8.6-10.8,8.6-15.1c0-3.2-3.2-17.3-6.5-18.4
	c-1.1-2.2-4.3-7.6-5.4-7.6s-17.3,1.1-20.5,0s-2.2-9.7-1.1-9.7s-5.4-1.1-1.1-5.4c-1.1-1.1-3.2-3.2,1.1-4.3c-0.1-1.4-0.9-2.6-2.1-3.3
	c-2.2-1.1-3.2-4.3,0-7.6c3.2-3.2,7.6-6.5,6.5-7.6s-3.2-2.2-3.2-3.2c0.9,0.7,2.1,1.1,3.2,1.1c0,0,1.1-8.6,1.1-9.7L303.8,74.7z"/>
<text transform="matrix(1 0 0 1 70.5996 93.4551)" class="st1 st2 st3"> </text>
<text transform="matrix(1 0 0 1 86.2253 100.5)" class="st1 st2 st4">CONTACT</text>
<text transform="matrix(1 0 0 1 80.8406 153.7871)" class="st1 st2 st4">MANAGER</text>
<line class="st5" x1="3.8" y1="17" x2="283.5" y2="17"/>
<polygon class="st6" points="282,21.9 290.5,17 282,12 "/>
<path class="st6" d="M309.7,68.8c0,0-7.6-3.2,1.1-13c7.6-5.4,13-10.8,32.4-8.6c4.3,1.1,21.6,3.2,27,19.4c2.2,0,9.7-7.6,18.4-2.2
	c3.4,2.2,5.7,5.7,6.5,9.7c0,5.4,0,11.9-7.6,25.9c-3.2,4.3-8.6,14-6.5,18.4c2.1,4.6,6.8,7.6,11.9,7.6c-5.4,1.1-17.3,3.2-20.5-8.6
	c-1.1-3.2-3.2-7.6,2.2-23.7c1.1-2.2,9.7-17.3,2.2-19.4h-3.2c0,0,4.3,13-4.3,27c-2.2,2.2-8.6,9.7-16.2,11.9c0,3.2,0,15.1,5.4,19.4
	l5.4,5.4c0,0-8.6,1.1-15.1,14c-2.2,3.2-5.4,8.6-14,9.7h-5.4c0,0,8.6-10.8,8.6-15.1c0-3.2-3.2-17.3-6.5-18.4
	c-1.1-2.2-4.3-7.6-5.4-7.6s-17.3,1.1-20.5,0s-2.2-9.7-1.1-9.7s-5.4-1.1-1.1-5.4c-1.1-1.1-3.2-3.2,1.1-4.3c-0.1-1.4-0.9-2.6-2.2-3.2
	c-2.2-1.1-3.2-4.3,0-7.6s7.6-6.5,6.5-7.6s-3.2-2.2-3.2-3.2c0.9,0.7,2.1,1.1,3.2,1.1c0,0,1.1-8.6,1.1-9.7L309.7,68.8z"/>
<path class="st0" d="M12.6,136.8c0,0,7.8-5.6,9-10.1c1.1-3.4,3.4-9,1.1-13.4c0,0-7.8-10.1-9-21.3s0-29.1,10.1-30.2
	c1.1,0-5.6,1.1-5.6,1.1c2.1-2,4.9-3.2,7.8-3.4c1.1-1.1,1.1-3.4,5.6-3.4c-1.6,1-3.1,2.1-4.5,3.4c0,0,3.4-5.6,26.9-4.5
	c6.7,1.1,21.3,0,23.5,7.8c0,0,2.2,2.2,1.1-4.5c1.1,1.1,1.1,4.5,1.1,5.6s2.2-2.2,2.2-2.2s0,4.5-4.5,4.5c0,2.2,1.1,9,2.2,10.1
	c0,2.2,1.1,2.2,0,10.1c0,0,7.8,13.4,9,16.8c0,0,2.2,5.6-6.7,5.6c0,2.2,0,4.5,1.1,4.5c0,1.1,1.1,1.1-1.1,3.4c1.1,1.1,2.2,3.4-1.1,4.5
	c0,3.4,1.1,10.1-2.2,11.2c-3.4,1.1-21.3-1.1-21.3,0c-1.1,1.1-3.4-1.1-4.5,11.2v5.6c-0.6,1.2-1.4,2.3-2.2,3.4c0,2.2,4.5,19,4.5,19
	S40.5,142.4,12.6,136.8z"/>
<path class="st6" d="M4.6,132.8c0,0,7.8-5.6,9-10.1c1.1-3.4,3.4-9,1.1-13.4c0,0-7.8-10.1-9-21.3s0-29.1,10.1-30.2
	c1.1,0-5.6,1.1-5.6,1.1c2.1-2,4.9-3.2,7.8-3.4c1.1-1.1,1.1-3.4,5.6-3.4c-1.6,1-3.1,2.1-4.5,3.4c0,0,3.4-5.6,26.9-4.5
	c6.7,1.1,21.3,0,23.5,7.8c0,0,2.2,2.2,1.1-4.5c1.1,1.1,1.1,4.5,1.1,5.6s2.2-2.2,2.2-2.2s0,4.5-4.5,4.5c0,2.2,1.1,9,2.2,10.1
	c0,2.2,1.1,2.2,0,10.1c0,0,7.8,13.4,9,16.8c0,0,2.2,5.6-6.7,5.6c0,2.2,0,4.5,1.1,4.5c0,1.1,1.1,1.1-1.1,3.4c1.1,1.1,2.2,3.4-1.1,4.5
	c0,3.4,1.1,10.1-2.2,11.2c-3.3,1.1-21.3-1.1-21.3,0c-1.1,1.1-3.4-1.1-4.5,11.2v5.6c-0.6,1.2-1.4,2.3-2.2,3.4c0,2.2,4.5,19,4.5,19
	S32.6,138.5,4.6,132.8z"/>
</svg>
